<svg height="1024" preserveAspectRatio="xMidYMid" viewBox="0 0 1024 1024" width="1024"
    xmlns="http://www.w3.org/2000/svg">
    <defs>
        <style>
            .cls-1 {
            fill: #424242;
            }

            .cls-2 {
            fill: #fb8c00;
            }

            .cls-2, .cls-3 {
            fill-rule: evenodd;
            }
            .cls-13 {
            fill: #fb8c00;
            }
            .cls-14 {
            fill: #263238;
            }
            .cls-15 {
            fill: #263238;
            }
            .cls-16 {
            fill: #263238;
            }
            .cls-2 {
            fill: #263238;
            }
            .cls-3 {
            fill: #fb8c00;
            }
            .cls-4 {
            fill: #fb8c00;
            }
            .cls-5 {
            fill: #fb8c00;
            }
            .cls-6 {
            fill: #fb8c00;
            }
            .cls-7 {
            fill: #fb8c00;
            }
            .cls-8 {
            fill: #fb8c00;
            }
            .cls-9 {
            fill: #fb8c00;
            }
            .cls-10 {
            fill: #fb8c00;
            }
            .cls-11 {
            fill: #fb8c00;
            }
            .cls-12 {
            fill: #fb8c00;
            }
        </style>
    </defs>
    <g>
        <circle class="cls-1" cx="511.578" cy="535.672" r="367.047" />
        <path
            class="cls-14"
            d="M579.000,46.000 C447.013,247.980 314.987,450.020 183.000,652.000 C183.333,651.667 183.667,651.333 184.000,651.000C354.316,460.686 524.684,270.314 695.000,80.000 C755.377,96.179 790.779,143.393 836.000,175.000 C836.000,175.667 836.000,176.333 836.000,177.000 C617.355,336.984 398.645,497.016 180.000,657.000 C180.333,657.333 180.667,657.667 181.000,658.000 C420.976,520.347 661.024,382.653 901.000,245.000 C926.584,285.172 952.080,343.378 965.000,398.000 C703.026,485.325 440.974,572.675 179.000,660.000 C445.640,610.672 712.360,561.328 979.000,512.000 C974.738,558.937 979.050,574.539 955.000,661.000 C697.359,661.667 439.641,662.333 182.000,663.000 C424.642,695.997 667.358,729.003 910.000,762.000 C870.101,808.026 869.293,826.314 797.000,883.000 C590.021,809.674 380.979,735.326 174.000,662.000 C242.660,461.353 313.340,261.647 382.000,61.000 C428.735,43.033 527.086,41.109 579.000,46.000 Z" />
        <path
            class="cls-15"
            d="M245.000,126.000 C221.336,303.982 197.664,482.018 174.000,660.000 C173.667,659.667 173.333,659.333 173.000,659.000 C129.671,610.005 86.329,560.995 43.000,512.000 C33.053,480.273 55.049,388.035 66.000,368.000 C99.611,465.010 137.176,561.173 174.000,656.000 C154.669,524.680 135.331,393.320 116.000,262.000 C134.199,216.167 208.564,159.206 245.000,126.000 Z" />
        <path
            class="cls-16"
            d="M55.000,621.000 C94.996,634.665 134.004,648.335 174.000,662.000 C157.275,707.533 149.092,733.112 132.000,786.000 C102.402,742.421 68.597,679.408 55.000,621.000 Z" />
        <path class="cls-17" d="M176.000,657.000 L176.000,657.000 Z" />
        <path
            class="cls-2"
            d="M174.000,663.000 C341.650,758.324 509.350,854.676 677.000,950.000 C677.000,950.333 677.000,950.667 677.000,951.000 C633.426,972.180 570.009,977.187 509.000,982.000 C399.011,878.010 288.989,773.990 179.000,670.000 C239.327,764.991 299.673,860.010 360.000,955.000 C303.676,930.535 244.103,907.806 190.000,854.000 C184.667,790.673 179.333,726.327 174.000,663.000 Z" />
        <path
            class="cls-3"
            d="M603.000,357.000 C620.971,356.989 639.849,352.723 657.000,351.000 C661.904,350.507 674.691,346.723 676.000,348.000 C681.414,349.887 680.990,353.869 684.000,358.000 C691.892,368.831 699.685,367.403 695.000,390.000 C691.759,392.046 690.968,392.988 685.000,393.000 C679.807,389.643 667.938,391.000 660.000,391.000 C637.606,390.999 619.824,393.582 601.000,396.000 C600.667,405.666 600.333,415.334 600.000,425.000 C601.516,425.536 601.693,425.675 604.000,426.000 C608.108,423.348 654.212,418.126 659.000,419.000 C663.886,428.218 673.590,433.278 676.000,443.000 C677.971,450.953 675.768,460.034 671.000,462.000 C667.224,464.094 662.563,461.276 658.000,461.000 C645.857,460.267 630.267,458.286 618.000,461.000 C596.120,465.841 574.329,466.450 554.000,473.000 C542.045,476.852 525.853,485.418 513.000,486.000 C503.636,478.110 492.012,469.936 490.000,455.000 C490.804,453.979 490.355,454.726 491.000,453.000 C500.886,447.160 502.533,452.151 514.000,449.000 C523.224,446.465 534.680,442.005 544.000,439.000 C548.419,437.575 552.765,438.351 556.000,436.000 C560.448,429.087 557.170,415.455 557.000,406.000 C545.730,406.761 524.085,414.736 514.000,419.000 C509.520,420.894 501.793,426.995 497.000,425.000 C485.007,423.281 469.841,401.777 470.000,387.000 C480.431,380.861 483.864,386.263 496.000,383.000 C515.703,377.702 536.393,369.884 558.000,367.000 C558.000,347.669 558.000,328.331 558.000,309.000 C557.428,303.672 555.815,298.251 557.000,292.000 C558.766,291.039 558.680,290.743 561.000,290.000 C566.820,285.349 579.508,289.101 585.000,291.000 C593.409,293.907 604.195,295.805 608.000,303.000 C611.246,309.137 606.240,314.951 605.000,320.000 C604.333,332.332 603.667,344.668 603.000,357.000 Z" />
        <path
            class="cls-4"
            d="M368.000,315.000 C390.886,315.367 390.663,337.999 400.000,352.000 C407.431,363.143 423.799,370.079 424.000,388.000 C420.340,392.036 419.853,396.969 414.000,399.000 C407.892,404.726 371.824,398.406 362.000,396.000 C353.495,378.348 343.783,352.415 354.000,330.000 C357.110,323.177 362.952,319.849 368.000,315.000 Z" />
        <path
            class="cls-5"
            d="M432.000,414.000 C435.823,413.982 438.270,414.433 441.000,415.000 C442.493,417.621 443.097,422.038 445.000,425.000 C446.323,427.059 449.004,427.479 451.000,429.000 C459.134,435.199 464.623,449.237 462.000,463.000 C461.000,463.333 460.000,463.667 459.000,464.000 C453.427,467.288 424.152,457.709 410.000,461.000 C387.072,466.331 369.980,475.809 348.000,482.000 C333.031,486.216 316.080,484.098 303.000,489.000 C295.922,491.652 274.040,506.139 269.000,504.000 C264.875,503.357 264.168,502.516 263.000,499.000 C260.551,495.437 253.491,468.491 253.000,463.000 C254.000,462.000 255.000,461.000 256.000,460.000 C259.886,457.263 291.145,458.503 300.000,456.000 C329.974,447.527 357.795,437.041 385.000,427.000 C396.580,422.726 408.696,420.424 420.000,417.000 C424.436,415.656 428.785,416.336 432.000,414.000 Z" />
        <path
            class="cls-6"
            d="M647.000,486.000 C682.169,485.405 701.557,497.133 716.000,517.000 C720.946,523.803 729.507,530.149 730.000,541.000 C729.000,541.333 728.000,541.667 727.000,542.000 C720.741,546.605 708.646,544.926 701.000,548.000 C678.528,557.034 657.113,573.407 627.000,566.000 C626.146,564.540 625.188,563.133 624.000,562.000 C624.631,560.246 624.193,561.029 625.000,560.000 C627.262,554.351 632.145,554.962 637.000,552.000 C648.389,545.051 662.020,537.511 662.000,519.000 C659.719,517.775 659.749,517.362 656.000,517.000 C649.906,513.017 625.488,519.368 620.000,521.000 C597.660,527.642 576.139,529.675 556.000,538.000 C550.475,540.284 542.899,543.463 538.000,547.000 C534.970,549.188 533.342,554.115 529.000,555.000 C515.567,557.737 508.832,521.317 511.000,511.000 C512.000,510.667 513.000,510.333 514.000,510.000 C519.420,506.958 533.174,510.950 541.000,509.000 C565.065,503.004 589.453,497.294 613.000,491.000 C624.332,489.334 635.668,487.667 647.000,486.000 Z" />
        <path
            class="cls-7"
            d="M410.000,493.000 C413.000,493.000 416.000,493.000 419.000,493.000 C422.593,498.099 430.615,510.030 424.000,519.000 C420.824,529.768 412.174,529.252 402.000,533.000 C391.849,536.740 379.531,540.187 368.000,543.000 C358.433,545.334 350.613,544.195 342.000,547.000 C331.889,550.293 325.810,558.466 314.000,559.000 C308.008,550.042 301.046,539.132 304.000,524.000 C307.335,521.770 307.195,520.312 313.000,520.000 C318.212,516.722 325.894,517.227 332.000,515.000 C346.323,509.775 362.256,504.416 378.000,500.000 C386.943,497.492 403.552,497.696 410.000,493.000 Z" />
        <path
            class="cls-8"
            d="M493.000,510.000 C494.667,510.333 496.333,510.667 498.000,511.000 C498.333,512.000 498.667,513.000 499.000,514.000 C501.704,518.544 497.237,532.559 496.000,538.000 C491.639,557.182 496.748,580.772 500.000,595.000 C501.329,600.815 498.739,604.975 496.000,607.000 C492.802,609.604 485.966,609.425 481.000,608.000 C471.697,605.330 448.979,595.865 446.000,588.000 C445.123,586.705 445.106,585.533 445.000,583.000 C453.839,576.938 455.327,565.308 461.000,556.000 C470.153,540.984 481.974,526.676 490.000,511.000 C492.076,510.628 491.924,510.758 493.000,510.000 Z" />
        <path
            class="cls-9"
            d="M413.000,558.000 C416.333,558.333 419.667,558.667 423.000,559.000 C429.290,569.416 428.333,576.780 425.000,589.000 C409.052,598.971 386.401,601.997 365.000,607.000 C358.667,607.667 352.333,608.333 346.000,609.000 C335.231,612.033 326.164,621.219 316.000,622.000 C314.979,621.196 315.726,621.645 314.000,621.000 C309.692,614.156 296.198,585.785 314.000,584.000 C320.922,579.659 331.790,580.698 340.000,578.000 C353.937,573.419 369.922,568.228 385.000,564.000 C393.772,561.540 406.108,562.791 413.000,558.000 Z" />
        <path
            class="cls-10"
            d="M602.000,568.000 C615.171,567.731 634.699,570.475 638.000,580.000 C640.522,587.276 634.800,591.660 633.000,595.000 C629.667,603.999 626.333,613.001 623.000,622.000 C620.801,628.742 620.525,636.535 619.000,643.000 C618.667,648.999 618.333,655.001 618.000,661.000 C617.534,698.257 632.773,704.764 662.000,712.000 C667.666,712.333 673.334,712.667 679.000,713.000 C689.226,715.226 699.724,711.463 707.000,708.000 C709.547,689.016 711.794,664.115 707.000,644.000 C703.797,630.562 700.235,616.439 700.000,601.000 C701.725,600.401 703.152,600.110 706.000,600.000 C725.924,631.504 738.167,667.769 751.000,707.000 C755.197,719.832 761.681,739.415 759.000,755.000 C746.732,760.810 709.404,763.752 692.000,760.000 C684.001,760.000 675.999,760.000 668.000,760.000 C659.257,758.084 649.468,756.861 641.000,755.000 C634.975,753.676 627.727,756.366 623.000,754.000 C613.686,749.339 608.457,735.830 603.000,727.000 C595.594,715.016 587.905,702.643 584.000,687.000 C578.789,666.126 587.000,627.841 591.000,610.000 C593.563,598.569 590.832,584.079 593.000,573.000 C594.758,571.919 596.618,570.485 598.000,569.000 C600.328,568.805 600.826,568.807 602.000,568.000 Z" />
        <path
            class="cls-11"
            d="M530.000,570.000 C545.620,569.454 566.173,578.143 566.000,593.000 C554.900,603.827 542.366,653.715 538.000,673.000 C538.000,680.333 538.000,687.667 538.000,695.000 C535.843,702.297 527.633,707.807 522.000,712.000 C515.736,716.663 509.931,722.801 503.000,727.000 C490.255,734.722 475.020,736.579 459.000,741.000 C452.216,742.872 444.799,745.451 437.000,744.000 C436.348,742.125 436.048,740.087 436.000,737.000 C463.334,711.110 498.430,688.285 514.000,651.000 C519.264,638.394 519.787,623.841 523.000,609.000 C525.079,599.398 519.940,588.027 522.000,580.000 C522.547,577.869 524.315,575.653 525.000,573.000 C526.822,572.169 528.661,571.312 530.000,570.000 Z" />
        <path
            class="cls-12"
            d="M392.000,623.000 C421.260,622.741 442.680,632.942 456.000,649.000 C453.693,659.944 444.967,663.707 441.000,673.000 C436.667,687.665 432.333,702.335 428.000,717.000 C425.290,725.964 426.871,741.114 420.000,746.000 C412.201,751.864 397.707,746.477 386.000,749.000 C377.325,750.870 366.307,749.598 357.000,752.000 C350.065,753.790 346.373,758.155 339.000,757.000 C324.664,733.292 307.409,712.404 298.000,684.000 C295.449,676.299 289.175,655.706 297.000,651.000 C302.666,650.000 308.334,649.000 314.000,648.000 C330.685,641.858 350.094,634.596 367.000,629.000 C375.332,627.000 383.668,625.000 392.000,623.000 Z" />
        <path
            class="cls-13"
            d="M393.000,660.000 C379.760,658.114 365.938,664.273 354.000,668.000 C349.205,669.497 340.058,670.154 338.000,674.000 C338.000,676.333 338.000,678.667 338.000,681.000 C339.919,683.829 339.547,687.452 341.000,691.000 C343.756,697.730 347.452,705.007 351.000,711.000 C359.746,708.102 385.313,702.427 388.000,695.000 C393.365,688.038 393.071,671.680 393.000,660.000 Z" />
    </g>
</svg>
